<svg width="38" height="38" viewBox="0 0 38 38" fill="none" xmlns="http://www.w3.org/2000/svg">
<path d="M29.6248 9.75H8.0415C5.48719 9.75 3.4165 11.8207 3.4165 14.375V18.5697L13.9575 22.0833H23.7088L34.2498 18.5697V14.375C34.2498 11.8207 32.1791 9.75 29.6248 9.75Z" fill="#F899CC"/>
<path d="M15.7498 9.75V8.20833H21.9165V9.75H24.9998V8.20833C24.9979 6.50626 23.6186 5.12694 21.9165 5.125H15.7498C14.0478 5.12694 12.6684 6.50626 12.6665 8.20833V9.75H15.7498ZM13.9575 22.0833L3.4165 18.5696V28.25C3.41929 30.8032 5.48833 32.8722 8.0415 32.875H29.6248C32.178 32.8722 34.247 30.8032 34.2498 28.25V18.5696L23.7088 22.0833H13.9575Z" fill="#ED017F"/>
</svg>
