<svg width="38" height="37" viewBox="0 0 38 37" fill="none" xmlns="http://www.w3.org/2000/svg">
<path d="M6.49984 24.6666C4.79696 24.6666 3.4165 23.2861 3.4165 21.5833C3.4165 19.8804 4.79696 18.4999 6.49984 18.4999C8.20272 18.4999 9.58317 19.8804 9.58317 21.5833C9.58097 23.2852 8.20181 24.6644 6.49984 24.6666ZM6.49984 9.24992C4.79696 9.24992 3.4165 7.86946 3.4165 6.16659C3.4165 4.46371 4.79696 3.08325 6.49984 3.08325C8.20272 3.08325 9.58317 4.46371 9.58317 6.16659C9.58097 7.86855 8.20181 9.24771 6.49984 9.24992ZM21.9165 9.24992C20.2136 9.24992 18.8332 7.86946 18.8332 6.16659C18.8332 4.46371 20.2136 3.08325 21.9165 3.08325C23.6194 3.08325 24.9998 4.46371 24.9998 6.16659C24.9976 7.86855 23.6185 9.24771 21.9165 9.24992ZM21.9165 24.6666C20.2136 24.6666 18.8332 23.2861 18.8332 21.5833C18.8332 19.8804 20.2136 18.4999 21.9165 18.4999C23.6194 18.4999 24.9998 19.8804 24.9998 21.5833C24.9976 23.2852 23.6185 24.6644 21.9165 24.6666Z" fill="#F467B2"/>
<path d="M15.7498 33.9166C14.047 33.9166 12.6665 32.5361 12.6665 30.8333C12.6665 29.1304 14.047 27.7499 15.7498 27.7499C17.4527 27.7499 18.8332 29.1304 18.8332 30.8333C18.831 32.5352 17.4518 33.9144 15.7498 33.9166ZM15.7498 18.4999C14.047 18.4999 12.6665 17.1195 12.6665 15.4166C12.6665 13.7137 14.047 12.3333 15.7498 12.3333C17.4527 12.3333 18.8332 13.7137 18.8332 15.4166C18.831 17.1186 17.4518 18.4977 15.7498 18.4999ZM31.1665 18.4999C29.4636 18.4999 28.0832 17.1195 28.0832 15.4166C28.0832 13.7137 29.4636 12.3333 31.1665 12.3333C32.8694 12.3333 34.2498 13.7137 34.2498 15.4166C34.2476 17.1186 32.8685 18.4977 31.1665 18.4999ZM31.1665 33.9166C29.4636 33.9166 28.0832 32.5361 28.0832 30.8333C28.0832 29.1304 29.4636 27.7499 31.1665 27.7499C32.8694 27.7499 34.2498 29.1304 34.2498 30.8333C34.2476 32.5352 32.8685 33.9144 31.1665 33.9166Z" fill="#ED017F"/>
<path d="M19.2623 7.70833C18.6902 6.76016 18.6902 5.57317 19.2623 4.625H9.15418C9.72627 5.57317 9.72627 6.76016 9.15418 7.70833H19.2623ZM6.49992 18.5C7.04286 18.5031 7.57511 18.6512 8.04159 18.9291V8.82092C7.09341 9.39302 5.90642 9.39302 4.95825 8.82092V18.9291C5.42473 18.6512 5.95697 18.5031 6.49992 18.5Z" fill="#FCE0EF"/>
<path d="M31.1666 27.7499C31.7095 27.753 32.2418 27.9011 32.7083 28.179V18.0708C31.7601 18.6429 30.5731 18.6429 29.6249 18.0708V28.179C30.0914 27.9011 30.6236 27.753 31.1666 27.7499ZM15.7499 27.7499C16.2929 27.753 16.8251 27.9011 17.2916 28.179V18.0708C16.3434 18.6429 15.1564 18.6429 14.2083 18.0708V28.179C14.6747 27.9011 15.207 27.753 15.7499 27.7499Z" fill="#F467B2"/>
<path d="M19.2625 20.0417H17.2917V23.1251H19.2625C18.6904 22.1769 18.6904 20.9899 19.2625 20.0417ZM14.2084 23.1251V20.0417H9.1543C9.72639 20.9899 9.72639 22.1769 9.1543 23.1251H14.2084Z" fill="#FCE0EF"/>
<path d="M28.5125 29.2917H18.4043C18.9764 30.2398 18.9764 31.4268 18.4043 32.375H28.5125C27.9404 31.4268 27.9404 30.2398 28.5125 29.2917ZM28.5125 16.9583C27.9404 16.0102 27.9404 14.8232 28.5125 13.875H18.4043C18.9764 14.8232 18.9764 16.0102 18.4043 16.9583H28.5125Z" fill="#F467B2"/>
<path d="M23.4583 13.8751V8.82104C22.5102 9.39314 21.3232 9.39314 20.375 8.82104V13.8751H23.4583ZM20.375 16.9585V18.9292C21.3232 18.3571 22.5102 18.3571 23.4583 18.9292V16.9585H20.375Z" fill="#FCE0EF"/>
</svg>
