<svg width="30" height="29" viewBox="0 0 30 29" fill="none" xmlns="http://www.w3.org/2000/svg">
<path d="M22.4033 14.0408C22.3458 13.8925 22.2596 13.757 22.1496 13.6421L16.1079 7.60042C15.9953 7.48775 15.8615 7.39838 15.7143 7.33741C15.5671 7.27644 15.4093 7.24506 15.25 7.24506C14.9282 7.24506 14.6196 7.37288 14.3921 7.60042C14.2794 7.71308 14.1901 7.84683 14.1291 7.99403C14.0681 8.14123 14.0367 8.299 14.0367 8.45833C14.0367 8.78011 14.1645 9.08872 14.3921 9.31625L18.3796 13.2917H9.20833C8.88786 13.2917 8.58052 13.419 8.35391 13.6456C8.12731 13.8722 8 14.1795 8 14.5C8 14.8205 8.12731 15.1278 8.35391 15.3544C8.58052 15.581 8.88786 15.7083 9.20833 15.7083H18.3796L14.3921 19.6838C14.2788 19.7961 14.1889 19.9297 14.1276 20.077C14.0662 20.2242 14.0347 20.3822 14.0347 20.5417C14.0347 20.7012 14.0662 20.8591 14.1276 21.0064C14.1889 21.1536 14.2788 21.2873 14.3921 21.3996C14.5044 21.5128 14.6381 21.6027 14.7853 21.6641C14.9325 21.7254 15.0905 21.757 15.25 21.757C15.4095 21.757 15.5675 21.7254 15.7147 21.6641C15.8619 21.6027 15.9956 21.5128 16.1079 21.3996L22.1496 15.3579C22.2596 15.243 22.3458 15.1075 22.4033 14.9592C22.5242 14.665 22.5242 14.335 22.4033 14.0408Z" fill="#ED017F"/>
</svg>
