<svg width="38" height="38" viewBox="0 0 38 38" fill="none" xmlns="http://www.w3.org/2000/svg">
<path d="M28.0106 23.042L24.2705 26.481C22.3474 28.1574 20.0879 29.4032 17.6437 30.1345L18.636 34.7644C18.6867 35.0008 18.7923 35.222 18.9442 35.4101C19.0962 35.5981 19.2902 35.7479 19.5107 35.8471C19.7311 35.9464 19.9718 35.9925 20.2134 35.9816C20.4549 35.9707 20.6905 35.9031 20.9011 35.7844L26.9217 32.3887C27.7691 31.8738 28.431 31.1031 28.812 30.1877C29.193 29.2723 29.2734 28.2595 29.0415 27.2955L28.0106 23.042ZM11.8679 14.0294L15.0879 10.2063L11.0722 9.23739C10.0959 8.89696 9.02944 8.92132 8.06972 9.30597C7.11001 9.69061 6.32192 10.4096 5.851 11.33L2.45904 17.3424C2.34019 17.553 2.27255 17.7886 2.26159 18.0301C2.25063 18.2717 2.29666 18.5125 2.39595 18.7329C2.49525 18.9534 2.64502 19.1475 2.83317 19.2994C3.02132 19.4513 3.24257 19.5568 3.47904 19.6074L8.21619 20.6229C9.00154 18.2122 10.2411 15.9741 11.8679 14.0294V14.0294ZM26.4645 14.0917C26.9219 14.0917 27.369 13.9561 27.7493 13.702C28.1296 13.4479 28.426 13.0867 28.601 12.6642C28.776 12.2416 28.8218 11.7766 28.7326 11.328C28.6434 10.8795 28.4231 10.4674 28.0997 10.144C27.7763 9.8206 27.3643 9.60036 26.9157 9.51113C26.4671 9.4219 26.0021 9.4677 25.5796 9.64272C25.157 9.81775 24.7959 10.1142 24.5418 10.4944C24.2877 10.8747 24.152 11.3218 24.152 11.7792C24.1523 12.3924 24.396 12.9805 24.8296 13.4141C25.2632 13.8478 25.8513 14.0915 26.4645 14.0917V14.0917Z" fill="#ED017F"/>
<path d="M35.51 3.67891C35.4405 3.41486 35.3021 3.17399 35.109 2.98091C34.9159 2.78782 34.675 2.64944 34.411 2.57987C31.2485 1.75781 27.918 1.84596 24.8034 2.83417C21.6889 3.82239 18.9168 5.67045 16.8068 8.16543L11.8679 14.0295C9.40058 16.9723 7.83539 20.5648 7.3603 24.3755C7.32983 24.6097 7.35356 24.8478 7.42964 25.0713C7.50573 25.2949 7.63215 25.498 7.79915 25.665L12.5785 30.4443C12.7216 30.5875 12.8915 30.7011 13.0785 30.7786C13.2655 30.8561 13.466 30.896 13.6684 30.896C13.7128 30.896 13.7573 30.8938 13.8024 30.89C17.6717 30.5703 21.3383 29.0259 24.2704 26.481L29.9176 21.2885C32.4214 19.1839 34.2762 16.4117 35.2663 13.2943C36.2563 10.1769 36.3408 6.84247 35.51 3.67891V3.67891ZM26.4645 14.0917C26.0071 14.0917 25.56 13.956 25.1797 13.7019C24.7994 13.4478 24.503 13.0867 24.328 12.6641C24.153 12.2416 24.1072 11.7766 24.1964 11.328C24.2856 10.8794 24.5059 10.4674 24.8293 10.144C25.1527 9.82058 25.5648 9.60033 26.0133 9.5111C26.4619 9.42188 26.9269 9.46767 27.3494 9.6427C27.772 9.81773 28.1332 10.1141 28.3873 10.4944C28.6414 10.8747 28.777 11.3218 28.777 11.7792C28.7768 12.3924 28.5331 12.9805 28.0994 13.4141C27.6658 13.8477 27.0777 14.0914 26.4645 14.0917V14.0917Z" fill="#F899CC"/>
</svg>
