<svg width="38" height="37" viewBox="0 0 38 37" fill="none" xmlns="http://www.w3.org/2000/svg">
<path d="M21.4792 13.875C20.2021 13.875 19.1667 12.8397 19.1667 11.5625C19.1667 10.2853 20.2021 9.25 21.4792 9.25C22.7564 9.25 23.7917 10.2853 23.7917 11.5625C23.7904 12.8391 22.7558 13.8736 21.4792 13.875Z" fill="#FCE0EF"/>
<path d="M29.9583 3.08325H8.375C5.82377 3.0907 3.75745 5.15702 3.75 7.70825V21.3674L9.73167 15.3858C11.5624 13.6437 14.4377 13.6437 16.2683 15.3858L20.6951 19.8365L22.0633 18.4683C23.8724 16.6698 26.7943 16.6698 28.6033 18.4683L34.5833 24.4483V7.70825C34.5759 5.15702 32.5096 3.0907 29.9583 3.08325ZM21.4792 13.8749C20.202 13.8749 19.1667 12.8396 19.1667 11.5624C19.1667 10.2853 20.202 9.24992 21.4792 9.24992C22.7563 9.24992 23.7917 10.2853 23.7917 11.5624C23.7903 12.839 22.7557 13.8735 21.4792 13.8749Z" fill="#F899CC"/>
<path d="M16.2683 15.3859C14.4377 13.6438 11.5623 13.6438 9.73167 15.3859L3.75 21.3676V29.2917C3.75746 31.843 5.82379 33.9093 8.375 33.9167H29.9583C31.215 33.9162 32.4172 33.4041 33.2883 32.4984L16.2683 15.3859Z" fill="#ED017F"/>
<path d="M34.5833 24.4483L28.6034 18.4683C26.7943 16.6698 23.8724 16.6698 22.0633 18.4683L20.6951 19.8365L33.2816 32.4914C34.1174 31.6361 34.5847 30.4874 34.5833 29.2916V24.4483Z" fill="#FCE0EF"/>
</svg>
